<svg width="1200" height="1600" viewBox="0 0 1200 1600" preserveAspectRatio="none" fill="none" xmlns="http://www.w3.org/2000/svg">
  <defs>
    <linearGradient id="base" x1="600" y1="0" x2="600" y2="1600" gradientUnits="userSpaceOnUse">
      <stop offset="0" stop-color="#FFFDFC"/>
      <stop offset="0.62" stop-color="#FFFCF6"/>
      <stop offset="1" stop-color="#FFF5E8"/>
    </linearGradient>
    <linearGradient id="wave1" x1="250" y1="980" x2="1160" y2="1145" gradientUnits="userSpaceOnUse">
      <stop offset="0" stop-color="#F9EBD2" stop-opacity="0.88"/>
      <stop offset="0.52" stop-color="#F8E4C5" stop-opacity="0.78"/>
      <stop offset="1" stop-color="#F5D8AF" stop-opacity="0.62"/>
    </linearGradient>
    <linearGradient id="wave2" x1="220" y1="1110" x2="1165" y2="1310" gradientUnits="userSpaceOnUse">
      <stop offset="0" stop-color="#F7E0BC" stop-opacity="0.66"/>
      <stop offset="0.48" stop-color="#F5D7AD" stop-opacity="0.58"/>
      <stop offset="1" stop-color="#F2CB9A" stop-opacity="0.46"/>
    </linearGradient>
    <linearGradient id="wave3" x1="160" y1="1300" x2="1180" y2="1495" gradientUnits="userSpaceOnUse">
      <stop offset="0" stop-color="#F7E3C2" stop-opacity="0.26"/>
      <stop offset="0.56" stop-color="#F5D8AF" stop-opacity="0.22"/>
      <stop offset="1" stop-color="#F3C992" stop-opacity="0.16"/>
    </linearGradient>
  </defs>
  <path d="M1200 886C1015 912 846 919 646 889C451 860 257 875 0 964V1600H1200V886Z" fill="url(#base)"/>
  <path d="M1200 948C1004 981 838 995 641 961C448 928 255 943 0 1032V1600H1200V948Z" fill="url(#wave1)"/>
  <path d="M1200 1098C1024 1123 858 1126 668 1095C473 1061 279 1076 0 1174V1600H1200V1098Z" fill="url(#wave2)"/>
  <path d="M1200 1292C1027 1304 866 1296 679 1268C489 1240 295 1250 0 1350V1600H1200V1292Z" fill="url(#wave3)"/>
</svg>
